<svg xmlns="http://www.w3.org/2000/svg" width="223.27" height="31.354" viewBox="0 0 223.27 31.354">
  <g id="logo" transform="translate(-53.5 -33.786)">
    <path id="パス_19146" data-name="パス 19146" d="M7.156-10.016H2.781v3.875H6.828v1.18H2.781V0H1.469V-11.2H7.156ZM9.281,0V-11.2h3.188a3.484,3.484,0,0,1,2.3.711,2.3,2.3,0,0,1,.852,1.852,2.724,2.724,0,0,1-.516,1.656,2.78,2.78,0,0,1-1.422,1v.031A2.85,2.85,0,0,1,15.5-5.1a2.631,2.631,0,0,1,.68,1.879A2.929,2.929,0,0,1,15.148-.891a3.838,3.838,0,0,1-2.6.891Zm1.313-10.016V-6.4h1.344a2.552,2.552,0,0,0,1.7-.52,1.809,1.809,0,0,0,.617-1.465q0-1.633-2.148-1.633Zm0,4.8v4.031h1.781a2.669,2.669,0,0,0,1.793-.547,1.873,1.873,0,0,0,.637-1.5q0-1.984-2.7-1.984ZM26.25,0H24.422L20.094-5.125a3.124,3.124,0,0,1-.3-.391h-.031V0H18.453V-11.2h1.313v5.266H19.8a3.089,3.089,0,0,1,.3-.383L24.281-11.2h1.633l-4.8,5.375ZM39.742-.469a6.571,6.571,0,0,1-3.094.656A4.989,4.989,0,0,1,32.82-1.352a5.679,5.679,0,0,1-1.437-4.039A5.952,5.952,0,0,1,33-9.734a5.489,5.489,0,0,1,4.1-1.656,6.576,6.576,0,0,1,2.641.461v1.4a5.355,5.355,0,0,0-2.656-.672,4.076,4.076,0,0,0-3.129,1.289,4.856,4.856,0,0,0-1.2,3.445,4.621,4.621,0,0,0,1.121,3.262A3.815,3.815,0,0,0,36.82-.992a5.518,5.518,0,0,0,2.922-.75Zm6.367.656a4.918,4.918,0,0,1-3.816-1.57,5.824,5.824,0,0,1-1.434-4.086A6.171,6.171,0,0,1,42.32-9.781,5.1,5.1,0,0,1,46.3-11.391a4.807,4.807,0,0,1,3.738,1.563,5.845,5.845,0,0,1,1.418,4.086A6.191,6.191,0,0,1,50-1.406,5.008,5.008,0,0,1,46.109.188ZM46.2-10.2A3.612,3.612,0,0,0,43.336-8.93a4.93,4.93,0,0,0-1.1,3.344,4.964,4.964,0,0,0,1.074,3.332,3.5,3.5,0,0,0,2.8,1.262,3.678,3.678,0,0,0,2.906-1.2,4.917,4.917,0,0,0,1.063-3.367,5.138,5.138,0,0,0-1.031-3.43A3.536,3.536,0,0,0,46.2-10.2ZM61.688,0H60.125L58.25-3.141a6.84,6.84,0,0,0-.5-.746,2.85,2.85,0,0,0-.5-.5,1.718,1.718,0,0,0-.547-.285,2.249,2.249,0,0,0-.66-.09H54.969V0H53.656V-11.2H57a4.765,4.765,0,0,1,1.355.184,3.033,3.033,0,0,1,1.078.559,2.6,2.6,0,0,1,.715.934,3.1,3.1,0,0,1,.258,1.309,3.151,3.151,0,0,1-.176,1.074,2.805,2.805,0,0,1-.5.871,3.031,3.031,0,0,1-.781.652,3.988,3.988,0,0,1-1.027.418v.031a2.363,2.363,0,0,1,.488.285,2.687,2.687,0,0,1,.395.379,5.019,5.019,0,0,1,.371.5q.184.277.41.645ZM54.969-10.016v4.063H56.75a2.7,2.7,0,0,0,.91-.148,2.107,2.107,0,0,0,.723-.426,1.931,1.931,0,0,0,.477-.68,2.275,2.275,0,0,0,.172-.9,1.756,1.756,0,0,0-.582-1.4,2.5,2.5,0,0,0-1.684-.5Zm9.57,5.781V0H63.227V-11.2H66.3a4.063,4.063,0,0,1,2.785.875,3.124,3.124,0,0,1,.988,2.469,3.4,3.4,0,0,1-1.1,2.609,4.194,4.194,0,0,1-2.965,1.016Zm0-5.781v4.594h1.375a3.074,3.074,0,0,0,2.074-.621A2.2,2.2,0,0,0,68.7-7.8q0-2.219-2.625-2.219ZM76.7.188a4.918,4.918,0,0,1-3.816-1.57,5.824,5.824,0,0,1-1.434-4.086,6.171,6.171,0,0,1,1.461-4.312,5.1,5.1,0,0,1,3.977-1.609,4.807,4.807,0,0,1,3.738,1.563,5.845,5.845,0,0,1,1.418,4.086,6.191,6.191,0,0,1-1.453,4.336A5.008,5.008,0,0,1,76.7.188ZM76.8-10.2A3.612,3.612,0,0,0,73.93-8.93a4.93,4.93,0,0,0-1.1,3.344A4.964,4.964,0,0,0,73.9-2.254,3.5,3.5,0,0,0,76.7-.992a3.678,3.678,0,0,0,2.906-1.2,4.917,4.917,0,0,0,1.063-3.367,5.138,5.138,0,0,0-1.031-3.43A3.536,3.536,0,0,0,76.8-10.2ZM92.281,0H90.719L88.844-3.141a6.84,6.84,0,0,0-.5-.746,2.85,2.85,0,0,0-.5-.5,1.718,1.718,0,0,0-.547-.285,2.249,2.249,0,0,0-.66-.09H85.563V0H84.25V-11.2h3.344a4.765,4.765,0,0,1,1.355.184,3.033,3.033,0,0,1,1.078.559,2.6,2.6,0,0,1,.715.934A3.1,3.1,0,0,1,91-8.219a3.151,3.151,0,0,1-.176,1.074,2.805,2.805,0,0,1-.5.871,3.031,3.031,0,0,1-.781.652,3.988,3.988,0,0,1-1.027.418v.031A2.363,2.363,0,0,1,89-4.887a2.687,2.687,0,0,1,.395.379,5.019,5.019,0,0,1,.371.5q.184.277.41.645ZM85.563-10.016v4.063h1.781a2.7,2.7,0,0,0,.91-.148,2.107,2.107,0,0,0,.723-.426,1.931,1.931,0,0,0,.477-.68,2.275,2.275,0,0,0,.172-.9,1.756,1.756,0,0,0-.582-1.4,2.5,2.5,0,0,0-1.684-.5ZM102.492,0h-1.453L99.852-3.141H95.1L93.984,0H92.523l4.3-11.2H98.18Zm-3.07-4.32L97.664-9.094a4.571,4.571,0,0,1-.172-.75h-.031a4.185,4.185,0,0,1-.18.75L95.539-4.32Zm10.2-5.7h-3.234V0H105.07V-10.016h-3.227V-11.2h7.773ZM112.688,0h-1.312V-11.2h1.313Zm7.461.188a4.918,4.918,0,0,1-3.816-1.57A5.824,5.824,0,0,1,114.9-5.469a6.171,6.171,0,0,1,1.461-4.312,5.1,5.1,0,0,1,3.977-1.609,4.807,4.807,0,0,1,3.738,1.563,5.845,5.845,0,0,1,1.418,4.086,6.191,6.191,0,0,1-1.453,4.336A5.008,5.008,0,0,1,120.148.188Zm.094-10.391a3.612,3.612,0,0,0-2.867,1.273,4.93,4.93,0,0,0-1.1,3.344,4.964,4.964,0,0,0,1.074,3.332,3.5,3.5,0,0,0,2.8,1.262,3.678,3.678,0,0,0,2.906-1.2,4.917,4.917,0,0,0,1.063-3.367,5.138,5.138,0,0,0-1.031-3.43A3.536,3.536,0,0,0,120.242-10.2ZM136.727,0h-1.609l-5.766-8.93a3.732,3.732,0,0,1-.359-.7h-.047a11.533,11.533,0,0,1,.063,1.539V0H127.7V-11.2h1.7l5.609,8.789q.352.547.453.75h.031a11.854,11.854,0,0,1-.078-1.648V-11.2h1.313Z" transform="translate(140.043 55.861)" fill="#222"/>
    <g id="グループ_5355" data-name="グループ 5355" transform="translate(53.5 34.246)">
      <circle id="楕円形_151" data-name="楕円形 151" cx="3.5" cy="3.5" r="3.5" transform="translate(7.93 12.615)" fill="#f80000"/>
      <path id="パス_19012" data-name="パス 19012" d="M-16950.842-9427.418v17.24s-1.045,4.547-4.689,4.547c-.025.091-5.182.252-5.182-4.547.021-.09-.549,0-.549,0l-5.668,13.8.521.309,21.256-11.264v-20.09Z" transform="translate(16966.93 9426.958)" fill="#f80000"/>
      <rect id="長方形_27708" data-name="長方形 27708" width="7" height="22" transform="translate(23.93 -0.385)" fill="#f80000"/>
      <rect id="長方形_27711" data-name="長方形 27711" width="4" height="22" transform="translate(60.93 -0.385)" fill="#f80000"/>
      <rect id="長方形_27709" data-name="長方形 27709" width="15" height="5" transform="translate(23.93 -0.385)" fill="#f80000"/>
      <rect id="長方形_27710" data-name="長方形 27710" width="14" height="5" transform="translate(23.93 8.615)" fill="#f80000"/>
      <path id="前面オブジェクトで型抜き_1" data-name="前面オブジェクトで型抜き 1" d="M0,23.4H0l.78-5.874V0H14a6.963,6.963,0,0,1,2.035.992A4.7,4.7,0,0,1,18.12,4.8a.5.5,0,0,0-.024.125l0,.012c-.245,1.446-.813,3.169-2.136,3.169.109.028,0,.918,0,.926A5.082,5.082,0,0,1,17.6,10.372a7.611,7.611,0,0,1,1.611,5.1,6.308,6.308,0,0,1-2.622,5.1A8.619,8.619,0,0,1,14,21.905H5.049V17.531H10.7c.1-.052,2.372-1.286,2.328-2.548A2.619,2.619,0,0,0,10.99,12.43c-.291-.012-.649-.018-1.061-.018-.562,0-1.088.011-1.35.018H8.56L5.79,14.4c-.163.179-4.036,4.438-5.008,9-.018-.05-.1-.076-.226-.076A2.946,2.946,0,0,0,0,23.4ZM7.189,5.015h0V9.344H11.91a3.509,3.509,0,0,0,1.028-2.083A4.265,4.265,0,0,0,11.91,5.015Z" transform="translate(40.005 -0.385)" fill="#f80000"/>
      <path id="パス_19015" data-name="パス 19015" d="M-16669.535-9419.436l5.451-7.661h5.537l-6.107,9.3-.252,1.081a13.081,13.081,0,0,1,6.359,11.43h-5.537s-1.312-7.462-5.451-8.571-1.559-5.928-1.559-5.928Z" transform="translate(16735.967 9427.233)" fill="#f80000"/>
    </g>
  </g>
</svg>
